<?xml version="1.0" encoding="UTF-8" standalone="no"?>
<!DOCTYPE svg PUBLIC "-//W3C//DTD SVG 1.1//EN"
 "http://www.w3.org/Graphics/SVG/1.1/DTD/svg11.dtd">
<!-- Generated by graphviz version 2.28.0 (20111028.1807)
 -->
<!-- Title: G Pages: 1 -->
<svg width="182pt" height="76pt"
 viewBox="0.00 0.00 182.00 76.00" xmlns="http://www.w3.org/2000/svg" xmlns:xlink="http://www.w3.org/1999/xlink">
<g id="graph1" class="graph" transform="scale(1 1) rotate(0) translate(4 72)">
<title>G</title>
<polygon fill="white" stroke="white" points="-4,5 -4,-72 179,-72 179,5 -4,5"/>
<g id="graph2" class="cluster"><title>cluster_default</title>
<polyline fill="none" stroke="none" points="20,-8 154,-8 "/>
<path fill="none" stroke="none" d="M154,-8C160,-8 166,-14 166,-20"/>
<polyline fill="none" stroke="none" points="166,-20 166,-48 "/>
<path fill="none" stroke="none" d="M166,-48C166,-54 160,-60 154,-60"/>
<polyline fill="none" stroke="none" points="154,-60 20,-60 "/>
<path fill="none" stroke="none" d="M20,-60C14,-60 8,-54 8,-48"/>
<polyline fill="none" stroke="none" points="8,-48 8,-20 "/>
<path fill="none" stroke="none" d="M8,-20C8,-14 14,-8 20,-8"/>
</g>
<!-- \\PortfolioController -->
<g id="node2" class="node"><title>\\PortfolioController</title>
<a xlink:href="db_portfolio.html" xlink:title="PortfolioController" target="_parent">
<polygon fill="none" stroke="black" points="157.921,-52 16.079,-52 16.079,-16 157.921,-16 157.921,-52"/>
<text text-anchor="middle" x="87" y="-29.6" font-family="Courier,monospace" font-size="11.00">PortfolioController</text>
</a>
</g>
</g>
</svg>
